<svg xmlns="http://www.w3.org/2000/svg" viewBox="0 0 1440 3200" width="100%" height="100%">
  <defs>
    <linearGradient id="bgGradient" x1="0%" y1="0%" x2="0%" y2="100%">
      <stop offset="0%" stop-color="#D4DCE2" /> <stop offset="30%" stop-color="#7898A1" /> <stop offset="100%" stop-color="#E2D7C8" /> </linearGradient>

    <filter id="grainFilter">
      <feTurbulence type="fractalNoise" baseFrequency="0.9" numOctaves="3" stitchTiles="stitch"/>
      <feColorMatrix type="matrix" values="0 0 0 0 0 0 0 0 0 0 0 0 0 0 0 0 0 0 0.15 0"/>
      <feComposite operator="in" in2="SourceGraphic" result="grain"/>
      <feBlend mode="multiply" in="grain" in2="SourceGraphic"/>
    </filter>
    
    <filter id="softShadow" x="-10%" y="-10%" width="120%" height="120%">
      <feDropShadow dx="0" dy="15" stdDeviation="25" flood-color="#546E7A" flood-opacity="0.15" />
    </filter>

    <filter id="glassFilter">
      <feGaussianBlur stdDeviation="10" result="blur" />
      <feComposite operator="in" in="SourceGraphic" in2="blur" result="glass" />
    </filter>

    <clipPath id="photoClip">
      <rect x="0" y="0" width="100%" height="100%" rx="50" ry="50" />
    </clipPath>

    <symbol id="icon-linux" viewBox="0 0 24 24" stroke="#4A5568" stroke-width="1" fill="none">
        <path d="M12 2L2 22h20L12 2zm0 18a2 2 0 110-4 2 2 0 010 4z"/>
    </symbol>
    <symbol id="icon-git" viewBox="0 0 24 24" stroke="#4A5568" stroke-width="1" fill="none">
        <circle cx="12" cy="12" r="10" />
        <path d="M12 2l2.4 7.2h7.6l-6 4.8 2.4 7.2-6-4.8-6 4.8 2.4-7.2-6-4.8h7.6z"/>
    </symbol>
    <symbol id="icon-github" viewBox="0 0 24 24" stroke="#4A5568" stroke-width="1" fill="none">
        <path d="M12 2C6.48 2 2 6.48 2 12c0 4.42 2.87 8.17 6.84 9.49.5.09.66-.22.66-.48 0-.24-.01-.86-.01-1.69-2.78.6-3.37-1.34-3.37-1.34-.46-1.16-1.11-1.47-1.11-1.47-.91-.62.07-.61.07-.61 1.01.07 1.54 1.04 1.54 1.04.89 1.53 2.34 1.09 2.91.83.09-.64.35-1.09.63-1.34-2.22-.25-4.56-1.11-4.56-4.93 0-1.09.39-1.98 1.03-2.68-.11-.25-.45-1.27.1-2.64 0 0 .84-.27 2.75 1.02a9.58 9.58 0 015 0c1.91-1.29 2.75-1.02 2.75-1.02.55 1.37.21 2.39.1 2.64.64.7 1.03 1.59 1.03 2.68 0 3.83-2.34 4.67-4.57 4.93.36.31.68.92.68 1.86 0 1.34-.01 2.42-.01 2.75 0 .26.17.58.67.48A10.01 10.01 0 0022 12c0-5.52-4.48-10-10-10z"/>
    </symbol>
    <symbol id="icon-html" viewBox="0 0 24 24" stroke="#4A5568" stroke-width="1" fill="none">
        <path d="M22 6L12 2 2 6l10 4zm0 6l-10 4-10-4m0 6l10 4 10-4"/>
    </symbol>
    <symbol id="icon-css" viewBox="0 0 24 24" stroke="#4A5568" stroke-width="1" fill="none">
        <path d="M12 2l2.4 7.2h7.6l-6 4.8 2.4 7.2-6-4.8-6 4.8 2.4-7.2-6-4.8h7.6zm0 18a2 2 0 110-4 2 2 0 010 4zM4.5 16h15M6 12h12" />
    </symbol>
    <symbol id="icon-adaptive" viewBox="0 0 24 24" stroke="#4A5568" stroke-width="1" fill="none">
        <rect x="2" y="2" width="20" height="20" rx="4" />
        <rect x="6" y="6" width="12" height="12" rx="2" />
        <circle cx="12" cy="19.5" r="1.5" />
    </symbol>
    <symbol id="icon-tg" viewBox="0 0 24 24" stroke="#4A5568" stroke-width="1.5" fill="none">
        <path d="M22 2L1 11l8 3.5M22 2l-3.5 19L9 14.5m13-12.5L9 14.5M9 14.5l3.5 5.5"/>
    </symbol>

  </defs>

  <rect id="background" width="100%" height="100%" fill="url(#bgGradient)" filter="url(#grainFilter)"/>

  <rect id="header-bg" x="120" y="40" width="1200" height="100" rx="50" ry="50" fill="rgba(212, 220, 226, 0.3)" filter="url(#glassFilter)" stroke="rgba(255, 255, 255, 0.2)" stroke-width="1"/>
  
  <g id="header-content" transform="translate(180, 70)">
    <circle cx="20" cy="20" r="35" fill="#E2D7C8" stroke="rgba(255,255,255,0.4)" stroke-width="2"/>
    <text x="5" y="28" font-family="sans-serif" font-size="28" font-weight="bold" fill="#2D3748">В.К.</text>

    <g id="header-nav" font-family="sans-serif" font-size="20" fill="#4A5568" font-weight="500">
      <text x="350" y="25">Обо мне</text>
      <text x="500" y="25">О тебе</text>
      <text x="640" y="25">О нас</text>
    </g>

    <rect x="940" y="-10" width="180" height="60" rx="30" ry="30" fill="#A0DCE2" filter="url(#softShadow)"/>
    <text x="970" y="28" font-family="sans-serif" font-size="20" font-weight="bold" fill="white">Связаться</text>
  </g>


  <g id="hero" transform="translate(120, 200)">
    
    <g id="hero-text" font-family="sans-serif">
      <text x="0" y="200" font-size="64" font-weight="bold" fill="#2D3748">Привет, я будущий</text>
      <text x="0" y="280" font-size="64" font-weight="bold" fill="#7898A1">фронтенд-разработчик</text>
      
      <text x="0" y="380" font-size="32" fill="#4A5568">Давай знакомиться!</text>
      
      <text x="0" y="440" font-size="22" fill="#4A5568">Сейчас я изучаю html и css. Добро пожаловать</text>
      <text x="0" y="470" font-size="22" fill="#4A5568">на мою страницу!</text>
      
      <text x="0" y="530" font-size="16" fill="#718096" font-style="italic">(P.S. Я создала ее сама)</text>
    </g>
    
    <g id="hero-image-wrapper" transform="translate(750, 100) rotate(-3)">
        <rect width="520" height="700" rx="50" ry="50" fill="white" filter="url(#softShadow)"/>
        <rect x="15" y="15" width="490" height="670" rx="40" ry="40" fill="#CFD8DC" clip-path="url(#photoClip)"/>
        <text x="130" y="370" font-family="sans-serif" font-size="36" fill="#546E7A">Твое фото здесь</text>
    </g>

    <text x="730" y="300" font-family="sans-serif" font-size="64" font-weight="bold" fill="#2D3748" opacity="0.15">фронтенд</text>
  </g>


  <g id="skills" transform="translate(120, 1050)">
    <text x="0" y="0" font-family="sans-serif" font-size="42" font-weight="bold" fill="#2D3748">Что я уже умею:</text>
    
    <g id="skills-grid" transform="translate(0, 60)">
      
      <g class="skill-card" transform="translate(0, 0)">
          <rect width="560" height="240" rx="30" ry="30" fill="rgba(255, 255, 255, 0.4)" filter="url(#glassFilter)" stroke="rgba(255, 255, 255, 0.2)" stroke-width="1"/>
          <g transform="translate(40, 40)">
              <use href="#icon-linux" width="60" height="60" />
              <text x="80" y="40" font-family="sans-serif" font-size="26" font-weight="bold" fill="#2D3748">Linux</text>
              <text x="80" y="90" font-family="sans-serif" font-size="18" fill="#4A5568">Уверенно работаю в терминале,</text>
              <text x="80" y="115" font-family="sans-serif" font-size="18" fill="#4A5568">управляю правами доступа и пакетами в Ubuntu.</text>
          </g>
      </g>
      
      <g class="skill-card" transform="translate(640, 0)">
          <rect width="560" height="240" rx="30" ry="30" fill="rgba(255, 255, 255, 0.4)" filter="url(#glassFilter)" stroke="rgba(255, 255, 255, 0.2)" stroke-width="1"/>
          <g transform="translate(40, 40)">
              <use href="#icon-git" width="60" height="60" />
              <text x="80" y="40" font-family="sans-serif" font-size="26" font-weight="bold" fill="#2D3748">Git</text>
              <text x="80" y="90" font-family="sans-serif" font-size="18" fill="#4A5568">Умею фиксировать изменения через коммиты</text>
              <text x="80" y="115" font-family="sans-serif" font-size="18" fill="#4A5568">и работать с ветками в проекте.</text>
          </g>
      </g>
      
      <g class="skill-card" transform="translate(0, 280)">
          <rect width="560" height="240" rx="30" ry="30" fill="rgba(255, 255, 255, 0.4)" filter="url(#glassFilter)" stroke="rgba(255, 255, 255, 0.2)" stroke-width="1"/>
          <g transform="translate(40, 40)">
              <use href="#icon-github" width="60" height="60" />
              <text x="80" y="40" font-family="sans-serif" font-size="26" font-weight="bold" fill="#2D3748">GitHub</text>
              <text x="80" y="90" font-family="sans-serif" font-size="18" fill="#4A5568">Публикую свои репозитории и использую</text>
              <text x="80" y="115" font-family="sans-serif" font-size="18" fill="#4A5568">GitHub Pages для хостинга сайтов.</text>
          </g>
      </g>
      
      <g class="skill-card" transform="translate(640, 280)">
          <rect width="560" height="240" rx="30" ry="30" fill="rgba(255, 255, 255, 0.4)" filter="url(#glassFilter)" stroke="rgba(255, 255, 255, 0.2)" stroke-width="1"/>
          <g transform="translate(40, 40)">
              <use href="#icon-html" width="60" height="60" />
              <text x="80" y="40" font-family="sans-serif" font-size="26" font-weight="bold" fill="#2D3748">HTML5</text>
              <text x="80" y="90" font-family="sans-serif" font-size="18" fill="#4A5568">Создаю правильную семантическую структуру</text>
              <text x="80" y="115" font-family="sans-serif" font-size="18" fill="#4A5568">страниц для лучшего SEO.</text>
          </g>
      </g>
      
      <g class="skill-card" transform="translate(0, 560)">
          <rect width="560" height="240" rx="30" ry="30" fill="rgba(255, 255, 255, 0.4)" filter="url(#glassFilter)" stroke="rgba(255, 255, 255, 0.2)" stroke-width="1"/>
          <g transform="translate(40, 40)">
              <use href="#icon-css" width="60" height="60" />
              <text x="80" y="40" font-family="sans-serif" font-size="26" font-weight="bold" fill="#2D3748">CSS3</text>
              <text x="80" y="90" font-family="sans-serif" font-size="18" fill="#4A5568">Стилизую элементы, работаю с Flexbox</text>
              <text x="80" y="115" font-family="sans-serif" font-size="18" fill="#4A5568">и создаю плавные анимации.</text>
          </g>
      </g>
      
      <g class="skill-card" transform="translate(640, 560)">
          <rect width="560" height="240" rx="30" ry="30" fill="rgba(255, 255, 255, 0.4)" filter="url(#glassFilter)" stroke="rgba(255, 255, 255, 0.2)" stroke-width="1"/>
          <g transform="translate(40, 40)">
              <use href="#icon-adaptive" width="60" height="60" />
              <text x="80" y="40" font-family="sans-serif" font-size="26" font-weight="bold" fill="#2D3748">Адаптивность</text>
              <text x="80" y="90" font-family="sans-serif" font-size="18" fill="#4A5568">Делаю так, чтобы сайт одинаково хорошо</text>
              <text x="80" y="115" font-family="sans-serif" font-size="18" fill="#4A5568">выглядел и на iPhone, и на мониторе.</text>
          </g>
      </g>

    </g>
  </g>


  <g id="plan" transform="translate(120, 2000)">
    <text x="0" y="0" font-family="sans-serif" font-size="42" font-weight="bold" fill="#2D3748">Мой график обучения</text>
    <text x="0" y="50" font-family="sans-serif" font-size="20" fill="#4A5568">Для самодисциплины я составила таблицу с планом занятий на неделю:</text>
    
    <g id="table-wrapper" transform="translate(0, 100)">
        <rect width="1200" height="250" rx="30" ry="30" fill="rgba(255, 255, 255, 0.4)" filter="url(#glassFilter)" stroke="rgba(255, 255, 255, 0.2)" stroke-width="1"/>
        
        <g transform="translate(40, 30)" font-family="sans-serif" font-size="18" font-weight="bold" fill="#2D3748">
            <text x="0" y="0">День</text>
            <text x="250" y="0">Тема изучения</text>
            <text x="700" y="0">Часы</text>
            <text x="950" y="0">Статус</text>
        </g>
        <line x1="40" y1="50" x2="1160" y2="50" stroke="#E2D7C8" stroke-width="2"/>
        
        <g transform="translate(40, 90)" font-family="sans-serif" font-size="18" fill="#4A5568">
            <text x="0" y="0">Четверг</text>
            <text x="250" y="0" font-weight="500">Основы Flexbox</text>
            <text x="700" y="0">3 часа</text>
            <text x="950" y="0">✅ Готово</text>
        </g>
        
        <g transform="translate(40, 140)" font-family="sans-serif" font-size="18" fill="#4A5568">
            <text x="0" y="0">Пятница</text>
            <text x="250" y="0" font-weight="500">Методология БЭМ</text>
            <text x="700" y="0">2 часа</text>
            <text x="950" y="0">⏳ В процессе</text>
        </g>
        
        <g transform="translate(40, 190)" font-family="sans-serif" font-size="18" fill="#4A5568">
            <text x="0" y="0">Суббота</text>
            <text x="250" y="0" font-weight="500">Позиционирование (Relative/Absolute)</text>
            <text x="700" y="0">4 часа</text>
            <text x="950" y="0">📅 Планирую</text>
        </g>
    </g>
  </g>


  <g id="about-me" transform="translate(120, 2450)">
    <rect width="1200" height="400" rx="30" ry="30" fill="rgba(255, 255, 255, 0.4)" filter="url(#glassFilter)" stroke="rgba(255, 255, 255, 0.2)" stroke-width="1"/>
    
    <g transform="translate(40, 40)">
        <text x="0" y="0" font-family="sans-serif" font-size="42" font-weight="bold" fill="#2D3748">Мой путь в IT</text>
        
        <g transform="translate(0, 50)" font-family="sans-serif" font-size="18" fill="#4A5568" font-weight="400">
            <text x="0" y="0">Моя любовь к технологиям началась задолго до написания первой осознанной программы...</text>
            <text x="0" y="30">Университетские годы прошли с изучением инженерных дисциплин...</text>
            <text x="0" y="60">Работа инженером стала финальной точкой в моих сомнениях...</text>
        </g>

        <g transform="translate(0, 160)">
            <rect width="600" height="150" rx="15" ry="15" fill="#2D3748" filter="url(#softShadow)"/>
            <text x="20" y="40" font-family="monospace" font-size="18" fill="white">
                <tspan x="20" dy="0"># А это мой первый код на Python:</tspan>
                <tspan x="20" dy="30" fill="#A0DCE2">print("Hello, World!")</tspan>
            </text>
        </g>

        <g transform="translate(650, -5)">
            <text x="0" y="30" font-family="sans-serif" font-size="28" font-weight="bold" fill="#2D3748">Вот что мне осталось изучить:</text>
            <g transform="translate(0, 70)" font-family="sans-serif" font-size="20" fill="#4A5568">
                <text x="0" y="0">● JavaScript</text>
                <text x="0" y="30">● TypeScript</text>
                <text x="0" y="60">● Angular / React / Vue.js</text>
                <text x="0" y="90">● Python</text>
            </g>
        </g>
    </g>
  </g>


  <g id="footer" transform="translate(120, 2950)">
    <line x1="0" y1="0" x2="1200" y2="0" stroke="rgba(255, 255, 255, 0.4)" stroke-width="1"/>
    
    <text x="0" y="60" font-family="sans-serif" font-size="18" fill="#718096">© 2026 Кожемякина Вероника. Все права защищены</p>
    
    <g id="tg-link" transform="translate(1100, 30)">
        <use href="#icon-tg" width="50" height="50"/>
        <text x="70" y="30" font-family="sans-serif" font-size="18" fill="#2D3748">@ver_kozhemiakina</text>
    </g>
  </g>

</svg>